<?xml version="1.0" encoding="utf-8"?>
<!-- Generator: Adobe Illustrator 19.1.0, SVG Export Plug-In . SVG Version: 6.00 Build 0)  -->
<svg version="1.1" id="Layer_1" xmlns="http://www.w3.org/2000/svg" xmlns:xlink="http://www.w3.org/1999/xlink" x="0px" y="0px"
	 viewBox="0 0 138.7 145.3" enable-background="new 0 0 138.7 145.3" xml:space="preserve">
<rect fill="#F7931E" width="139.9" height="145.3"/>
<path fill="none" stroke="#FFFFFF" stroke-width="5" stroke-miterlimit="10" d="M43.9,57.3c-1.3-3.2-3.1-6.2-5.3-9
	c-1.7-2.1-4.5-4.3-6.8-2.9c-0.6,0.4-1.1,1-1.6,1.5c-2.1,2.6-4.2,5.8-3.4,9c0.6,2.3,2.5,4,4.4,5.6c5.6,4.9,10.6,10.4,15.1,16.3
	c1.9,2.5,3.7,5.3,3.9,8.5c0.1,1.1,0,2.2-0.6,3.1c-0.7,1-1.9,1.6-3,2c-5.5,2-11.8,1.7-16.8-1.3c-5-3-8.3-8.7-8-14.5
	c0.1-1,0.3-2.1,1.1-2.7"/>
<path fill="none" stroke="#FFFFFF" stroke-width="5" stroke-miterlimit="10" d="M53.9,49.8c6,15.6,11,31.5,15.2,47.6
	C68.8,92.2,70.1,87,71.5,82c2.9-10.8,6-21.5,9.3-32.2"/>
<path fill="none" stroke="#FFFFFF" stroke-width="5" stroke-miterlimit="10" d="M101.7,50c-4-0.5-8.1,2.1-10,5.6s-2.1,7.9-1.2,11.9
	c1.1,5.3,4,10.2,8,13.8c1.6,1.4,3.4,2.7,5.5,3.2c4.8,1.1,9.4-2.2,13.3-5.3"/>
<path fill="none" stroke="#FFFFFF" stroke-width="5" stroke-miterlimit="10" d="M106.5,72.9c3.8-1.1,7.7-2,11.6-2.8
	c-0.9,12.2-0.8,24.4,0.2,36.5"/>
</svg>
