<?xml version="1.0" encoding="utf-8"?>
<!-- Generator: Adobe Illustrator 19.2.1, SVG Export Plug-In . SVG Version: 6.00 Build 0)  -->
<svg version="1.1" id="Lager_1" xmlns="http://www.w3.org/2000/svg" xmlns:xlink="http://www.w3.org/1999/xlink" x="0px" y="0px"
	 viewBox="0 0 186 301.3" style="enable-background:new 0 0 186 301.3;" xml:space="preserve">
<style type="text/css">
	.st0{fill:#FFFFFF;stroke:#000000;stroke-miterlimit:10;}
	.st1{fill:#CA007F;}
	.st2{fill:#878787;}
</style>
<g>
	<rect x="2.9" y="2.7" class="st0" width="179" height="295.3"/>
	<g>
		<path d="M15.5,55v-1.2c0.8,0.4,1.7,0.7,2.7,0.7c1.5,0,2.2-0.7,2.2-2c0-1.1-0.5-1.5-1.6-2l-1-0.4c-1.3-0.5-2.2-1.3-2.2-3
			c0-1.8,1.2-3,3.3-3c1.2,0,1.9,0.3,2.4,0.5v1.2c-0.6-0.3-1.4-0.5-2.4-0.5C17.7,45.4,17,46,17,47c0,1,0.3,1.4,1.4,1.8l1,0.4
			c1.5,0.6,2.5,1.2,2.5,3.1c0,1.9-1,3.3-3.5,3.3C17,55.6,16.1,55.3,15.5,55z"/>
		<path d="M24.5,55.5h-1.4V43.7h1.4V55.5z M27.5,47.2H29l-2.6,3.9l2.8,4.4h-1.6l-2.8-4.2L27.5,47.2z"/>
		<path d="M29.5,53.3c0-1.4,0.9-2.2,2.4-2.4l1.9-0.3v-0.8c0-1.2-0.5-1.5-1.8-1.5c-0.8,0-1.4,0.1-1.8,0.3v-1c0.6-0.3,1.4-0.4,2.4-0.4
			c1.7,0,2.7,0.8,2.7,2.4v6h-1.1L34,54.8h-0.1c-0.4,0.4-1,0.8-1.9,0.8C30.5,55.6,29.5,54.8,29.5,53.3z M33.8,54.1v-2.4l-1.5,0.2
			c-0.9,0.1-1.4,0.5-1.4,1.4s0.5,1.3,1.4,1.3C33,54.5,33.5,54.3,33.8,54.1z"/>
		<path d="M37.3,53.6v-5.2h-1.1v-1.1h1.1v-1.9h1.3v1.9h1.9v1.1h-1.9v5.1c0,0.8,0.3,1,1.1,1c0.3,0,0.7-0.1,0.9-0.1v0.9
			c-0.3,0.2-0.7,0.3-1.3,0.3C38.1,55.5,37.3,55,37.3,53.6z"/>
		<path d="M41.8,53.3v-6.1h1.3v5.9c0,0.8,0.3,1.2,1.4,1.2c0.8,0,1.4-0.3,1.9-0.5v-6.6h1.3v8.2h-1.2l-0.1-0.7h-0.1
			c-0.6,0.4-1.4,0.8-2.4,0.8C42.6,55.6,41.8,54.7,41.8,53.3z"/>
		<path d="M49.2,51.6v-0.3c0-2.8,1.3-4.2,3.4-4.2c0.8,0,1.5,0.2,1.8,0.4v-3.9h1.3v11.8h-1.1l-0.1-0.6h-0.1c-0.4,0.4-1.2,0.8-2.1,0.8
			C50.7,55.6,49.2,54.6,49.2,51.6z M54.4,53.9v-5.2c-0.3-0.2-1-0.4-1.7-0.4c-1.4,0-2.2,0.8-2.2,2.9v0.4c0,2.1,0.8,2.9,2.1,2.9
			C53.5,54.5,54,54.2,54.4,53.9z"/>
		<path d="M57.1,51.6v-0.3c0-2.8,1.3-4.2,3.4-4.2c0.8,0,1.5,0.2,1.8,0.4v-3.9h1.3v11.8h-1.1l-0.1-0.6h-0.1c-0.4,0.4-1.2,0.8-2.1,0.8
			C58.6,55.6,57.1,54.6,57.1,51.6z M62.3,53.9v-5.2c-0.3-0.2-1-0.4-1.7-0.4c-1.4,0-2.2,0.8-2.2,2.9v0.4c0,2.1,0.8,2.9,2.1,2.9
			C61.4,54.5,62,54.2,62.3,53.9z"/>
		<path d="M64.9,55.1V54c0.6,0.2,1.2,0.5,2.1,0.5c1.1,0,1.6-0.4,1.6-1.2c0-0.7-0.3-1-1.2-1.3l-0.6-0.2c-1.1-0.4-1.8-0.9-1.8-2.3
			c0-1.4,0.9-2.4,2.7-2.4c1,0,1.5,0.2,1.9,0.4v1.1c-0.4-0.2-1.1-0.4-1.9-0.4c-0.9,0-1.5,0.3-1.5,1.1c0,0.7,0.3,0.9,1.1,1.2l0.6,0.2
			c1.4,0.5,2,1,2,2.4c0,1.6-1.1,2.5-2.7,2.5C66.3,55.6,65.5,55.4,64.9,55.1z"/>
		<path d="M72.6,55.5h-1.4V43.7h1.4V55.5z M75.6,47.2H77l-2.6,3.9l2.8,4.4h-1.6l-2.8-4.2L75.6,47.2z"/>
		<path d="M77.6,53.3c0-1.4,0.9-2.2,2.4-2.4l1.9-0.3v-0.8c0-1.2-0.5-1.5-1.8-1.5c-0.8,0-1.4,0.1-1.8,0.3v-1c0.6-0.3,1.4-0.4,2.4-0.4
			c1.7,0,2.7,0.8,2.7,2.4v6h-1.1L82,54.8h-0.1c-0.4,0.4-1,0.8-1.9,0.8C78.6,55.6,77.6,54.8,77.6,53.3z M81.9,54.1v-2.4l-1.5,0.2
			c-0.9,0.1-1.4,0.5-1.4,1.4s0.5,1.3,1.4,1.3C81,54.5,81.6,54.3,81.9,54.1z"/>
		<path d="M83.1,58.3v-0.9c0.2,0,0.5,0.1,0.8,0.1c0.7,0,1.1-0.4,1.1-1.2v-9h1.3v9.1c0,1.3-0.6,2.3-2.1,2.3
			C83.7,58.6,83.4,58.5,83.1,58.3z M85,44.2h1.4v1.4H85V44.2z"/>
		<path d="M87.7,51.5v-0.4c0-2.8,1.4-4.1,3.2-4.1c2,0,3,1.2,3,3.9v0.8h-4.8c0.1,1.9,0.9,2.7,2.4,2.7c0.9,0,1.6-0.2,2.3-0.6v1
			c-0.4,0.4-1.3,0.8-2.4,0.8C88.9,55.6,87.7,54.1,87.7,51.5z M89.1,50.7h3.4c0-1.8-0.5-2.5-1.6-2.5C90,48.2,89.2,48.8,89.1,50.7z"/>
		<path d="M95.2,47.2h1.3v0.7h0.1c0.6-0.4,1.6-0.8,2.5-0.8c1.5,0,2.2,0.6,2.2,2.1v6.2H100v-6c0-0.8-0.3-1.2-1.4-1.2
			c-0.7,0-1.5,0.3-2,0.5v6.7h-1.4V47.2z"/>
		<path d="M105.2,54.5l2.3-2.3c1.4-1.4,2-2.3,2-3.5c0-1.2-0.6-1.8-1.8-1.8c-0.8,0-1.5,0.2-2.1,0.5v-1c0.6-0.4,1.4-0.6,2.4-0.6
			c1.8,0,2.8,1.1,2.8,2.8c0,1.5-0.8,2.7-2.5,4.2l-1.6,1.5v0h4.1v1.1h-5.7V54.5z"/>
		<path d="M17.2,66.7l-1.8,0.2v-0.8l2.6-1.1h0.5v9.6h-1.4V66.7z"/>
		<path d="M20.2,73.7l2.3-2.3c1.4-1.4,2-2.3,2-3.5c0-1.2-0.6-1.8-1.8-1.8c-0.8,0-1.5,0.2-2.1,0.5v-1C21.2,65.3,22,65,23,65
			c1.8,0,2.8,1.1,2.8,2.8c0,1.5-0.8,2.7-2.5,4.2l-1.6,1.5v0h4.1v1.1h-5.7V73.7z"/>
		<path d="M29.6,70.7v-0.4c0-2.8,1.4-4.1,3.2-4.1c2,0,3,1.2,3,3.9V71H31c0.1,1.9,0.9,2.7,2.4,2.7c0.9,0,1.6-0.2,2.3-0.6v1
			c-0.4,0.4-1.3,0.8-2.4,0.8C30.8,74.8,29.6,73.3,29.6,70.7z M31,69.9h3.4c0-1.8-0.5-2.5-1.6-2.5C31.9,67.4,31.1,68,31,69.9z"/>
		<path d="M37.1,72.5v-6.1h1.3v5.9c0,0.8,0.3,1.2,1.4,1.2c0.8,0,1.4-0.3,1.9-0.5v-6.6H43v8.2h-1.2L41.7,74h-0.1
			c-0.6,0.4-1.4,0.8-2.4,0.8C37.8,74.8,37.1,73.9,37.1,72.5z"/>
		<path d="M44.8,66.4h1.3v0.9h0.1c0.4-0.5,1.2-1,2-1c0.2,0,0.4,0,0.5,0.1v1.2c-0.2,0-0.4,0-0.6,0c-0.7,0-1.4,0.2-1.9,0.6v6.5h-1.4
			V66.4z"/>
		<path d="M49.3,70.8v-0.4c0-2.5,1.3-4.1,3.4-4.1c2.2,0,3.4,1.5,3.4,4v0.4c0,2.5-1.3,4.1-3.4,4.1C50.5,74.8,49.3,73.3,49.3,70.8z
			 M54.7,70.9v-0.7c0-2-0.8-2.8-2.1-2.8c-1.3,0-2,1.1-2,2.8v0.7c0,2,0.8,2.8,2.1,2.8C54,73.7,54.7,72.6,54.7,70.9z"/>
		<path d="M60,69.9v-0.3c0-2.9,1.3-5.3,2.8-6.7h1.2c-1.3,1.6-2.5,4-2.5,6.6v0.5c0,2.5,1.2,5.1,2.5,6.7h-1.2
			C61.3,75.1,60,72.8,60,69.9z"/>
		<path d="M64.9,74.4V62.9h1.4v4h0.1c0.5-0.3,1.2-0.6,2.2-0.6c1.5,0,2.9,0.9,2.9,3.9v0.4c0,2.7-1.3,4.3-3.8,4.3
			C66.7,74.8,65.5,74.6,64.9,74.4z M70.1,70.8v-0.5c0-2.1-0.7-2.8-2.1-2.8c-0.7,0-1.4,0.3-1.7,0.4v5.6c0.3,0.1,0.8,0.2,1.5,0.2
			C69,73.7,70.1,73.1,70.1,70.8z"/>
		<path d="M72.3,72.5c0-1.4,0.9-2.2,2.4-2.4l1.9-0.3V69c0-1.2-0.5-1.5-1.8-1.5c-0.8,0-1.4,0.1-1.8,0.3v-1c0.6-0.3,1.4-0.4,2.4-0.4
			c1.7,0,2.7,0.8,2.7,2.4v6h-1.1L76.8,74h-0.1c-0.4,0.4-1,0.8-1.9,0.8C73.3,74.8,72.3,74,72.3,72.5z M76.6,73.3v-2.4L75.1,71
			c-0.9,0.1-1.4,0.5-1.4,1.4s0.5,1.3,1.4,1.3C75.8,73.7,76.3,73.5,76.6,73.3z"/>
		<path d="M79.7,66.4H81v0.9h0.1c0.4-0.5,1.2-1,2-1c0.2,0,0.4,0,0.5,0.1v1.2c-0.2,0-0.4,0-0.6,0c-0.7,0-1.4,0.2-1.9,0.6v6.5h-1.4
			V66.4z"/>
		<path d="M84.6,66.4h1.3v0.7H86c0.6-0.4,1.6-0.8,2.5-0.8c1.5,0,2.2,0.6,2.2,2.1v6.2h-1.3v-6c0-0.8-0.3-1.2-1.4-1.2
			c-0.7,0-1.5,0.3-2,0.5v6.7h-1.4V66.4z"/>
		<path d="M94.5,75.8v-1c0.6,0.3,1.4,0.6,2.2,0.6c1.5,0,2.5-0.7,2.5-2.2c0-1.4-0.8-2-2.3-2h-0.9v-1.1h0.8c1.2,0,2-0.6,2-1.9
			c0-1.4-0.7-1.9-1.9-1.9c-0.9,0-1.5,0.2-2,0.4v-1c0.6-0.3,1.5-0.5,2.4-0.5c1.9,0,2.9,1,2.9,2.8c0,1.4-0.6,2.2-1.8,2.5v0
			c1.3,0.3,2.2,1.1,2.2,2.8c0,2.1-1.4,3.3-3.6,3.3C95.9,76.4,95.1,76.1,94.5,75.8z"/>
		<path d="M101.9,69.7h2.9v1.2h-2.9V69.7z"/>
		<path d="M107,66.7l-1.8,0.2v-0.8l2.6-1.1h0.5v9.6H107V66.7z"/>
		<path d="M111.7,66.7l-1.8,0.2v-0.8l2.6-1.1h0.5v9.6h-1.4V66.7z"/>
		<path d="M117.4,72.5c0-1.4,0.9-2.2,2.4-2.4l1.9-0.3V69c0-1.2-0.5-1.5-1.8-1.5c-0.8,0-1.4,0.1-1.8,0.3v-1c0.6-0.3,1.4-0.4,2.4-0.4
			c1.7,0,2.7,0.8,2.7,2.4v6h-1.1l-0.1-0.6h-0.1c-0.4,0.4-1,0.8-1.9,0.8C118.4,74.8,117.4,74,117.4,72.5z M121.7,73.3v-2.4l-1.5,0.2
			c-0.9,0.1-1.4,0.5-1.4,1.4s0.5,1.3,1.4,1.3C120.8,73.7,121.4,73.5,121.7,73.3z M118.9,64c0-0.8,0.6-1.4,1.4-1.4
			c0.8,0,1.4,0.6,1.4,1.4c0,0.8-0.6,1.4-1.4,1.4C119.5,65.4,118.9,64.8,118.9,64z M121.1,64c0-0.4-0.3-0.8-0.7-0.8
			c-0.4,0-0.7,0.3-0.7,0.8c0,0.5,0.3,0.8,0.7,0.8C120.8,64.8,121.1,64.5,121.1,64z"/>
		<path d="M124.8,66.4h1.3v0.9h0.1c0.4-0.5,1.2-1,2-1c0.2,0,0.4,0,0.5,0.1v1.2c-0.2,0-0.4,0-0.6,0c-0.7,0-1.4,0.2-1.9,0.6v6.5h-1.4
			V66.4z"/>
		<path d="M132.3,76v-1c0.4,0.2,1.2,0.3,1.9,0.3c1.7,0,3-0.8,3.2-4.2c-0.5,0.4-1.4,0.8-2.4,0.8c-1.9,0-3-1.1-3-3.2
			c0-2.1,1.1-3.7,3.3-3.7c2.4,0,3.6,1.8,3.6,4.8v0.8c0,4.3-1.8,5.9-4.3,5.9C133.5,76.4,132.7,76.3,132.3,76z M137.4,70.1v-0.5
			c0-2.3-0.7-3.5-2.2-3.5c-1.3,0-1.9,1-1.9,2.5c0,1.7,0.8,2.2,2,2.2C136.2,70.8,136.9,70.5,137.4,70.1z"/>
		<path d="M142.4,70.7v-0.4c0-2.8,1.4-4.1,3.2-4.1c2,0,3,1.2,3,3.9V71h-4.8c0.1,1.9,0.9,2.7,2.4,2.7c0.9,0,1.6-0.2,2.3-0.6v1
			c-0.4,0.4-1.3,0.8-2.4,0.8C143.6,74.8,142.4,73.3,142.4,70.7z M143.8,69.9h3.4c0-1.8-0.5-2.5-1.6-2.5
			C144.7,67.4,143.9,68,143.8,69.9z"/>
		<path d="M149.9,72.5v-6.1h1.3v5.9c0,0.8,0.3,1.2,1.4,1.2c0.8,0,1.4-0.3,1.9-0.5v-6.6h1.3v8.2h-1.2l-0.1-0.7h-0.1
			c-0.6,0.4-1.4,0.8-2.4,0.8C150.6,74.8,149.9,73.9,149.9,72.5z"/>
		<path d="M157.6,66.4h1.3v0.9h0.1c0.4-0.5,1.2-1,2-1c0.2,0,0.4,0,0.5,0.1v1.2c-0.2,0-0.4,0-0.6,0c-0.7,0-1.4,0.2-1.9,0.6v6.5h-1.4
			V66.4z"/>
		<path d="M162.1,70.8v-0.4c0-2.5,1.3-4.1,3.4-4.1c2.2,0,3.4,1.5,3.4,4v0.4c0,2.5-1.3,4.1-3.4,4.1C163.3,74.8,162.1,73.3,162.1,70.8
			z M167.6,70.9v-0.7c0-2-0.8-2.8-2.1-2.8c-1.3,0-2,1.1-2,2.8v0.7c0,2,0.8,2.8,2.1,2.8C166.9,73.7,167.6,72.6,167.6,70.9z"/>
		<path d="M172,70v-0.5c0-2.5-1.2-5.1-2.5-6.7h1.2c1.4,1.4,2.7,3.8,2.7,6.7v0.3c0,2.9-1.3,5.2-2.7,6.7h-1.2
			C170.8,75,172,72.6,172,70z"/>
		<path d="M16.2,102h2.1l2.1,7.3c0.3,1.1,0.5,2.1,0.5,2.1h0c0,0,0.2-1.1,0.5-2.1l2.1-7.3h2.1v11.1h-1.4v-6.6c0-1.4,0-2.9,0-2.9h0
			c0,0-0.3,1.2-0.7,2.4l-2.1,7.1h-1.4l-2.1-7.1c-0.4-1.3-0.6-2.4-0.6-2.4h0c0,0,0,1.4,0,2.9v6.6h-1.3V102z"/>
		<path d="M27.2,109.1v-0.4c0-2.8,1.4-4.1,3.2-4.1c2,0,3,1.2,3,3.9v0.8h-4.8c0.1,1.9,0.9,2.7,2.4,2.7c0.9,0,1.6-0.2,2.3-0.6v1
			c-0.4,0.4-1.3,0.8-2.4,0.8C28.4,113.2,27.2,111.7,27.2,109.1z M28.6,108.3H32c0-1.8-0.5-2.5-1.6-2.5
			C29.5,105.8,28.6,106.4,28.6,108.3z"/>
		<path d="M34.3,109.2v-0.3c0-2.8,1.3-4.2,3.4-4.2c0.8,0,1.5,0.2,1.8,0.4v-3.9h1.3v11.8h-1.1l-0.1-0.6h-0.1
			c-0.4,0.4-1.2,0.8-2.1,0.8C35.8,113.2,34.3,112.2,34.3,109.2z M39.5,111.5v-5.2c-0.3-0.2-1-0.4-1.7-0.4c-1.4,0-2.2,0.8-2.2,2.9
			v0.4c0,2.1,0.8,2.9,2.1,2.9C38.6,112.1,39.1,111.8,39.5,111.5z"/>
		<path d="M45.5,102h1.4v4.8h4.7V102H53v11.1h-1.4v-5.2h-4.7v5.2h-1.4V102z"/>
		<path d="M54.5,109.1v-0.4c0-2.8,1.4-4.1,3.2-4.1c2,0,3,1.2,3,3.9v0.8h-4.8c0.1,1.9,0.9,2.7,2.4,2.7c0.9,0,1.6-0.2,2.3-0.6v1
			c-0.4,0.4-1.3,0.8-2.4,0.8C55.7,113.2,54.5,111.7,54.5,109.1z M55.9,108.3h3.4c0-1.8-0.5-2.5-1.6-2.5
			C56.8,105.8,56,106.4,55.9,108.3z"/>
		<path d="M62.1,101.3h1.3v11.8h-1.3V101.3z"/>
		<path d="M64.7,112.7v-1.1c0.6,0.2,1.2,0.5,2.1,0.5c1.1,0,1.6-0.4,1.6-1.2c0-0.7-0.3-1-1.2-1.3l-0.6-0.2c-1.1-0.4-1.8-0.9-1.8-2.3
			c0-1.4,0.9-2.4,2.7-2.4c1,0,1.5,0.2,1.9,0.4v1.1c-0.4-0.2-1.1-0.4-1.9-0.4c-0.9,0-1.5,0.3-1.5,1.1c0,0.7,0.3,0.9,1.1,1.2l0.6,0.2
			c1.4,0.5,2,1,2,2.4c0,1.6-1.1,2.5-2.7,2.5C66.1,113.2,65.3,113,64.7,112.7z"/>
		<path d="M71.1,101.8h1.4v1.4h-1.4V101.8z M71.1,104.8h1.3v8.2h-1.3V104.8z"/>
		<path d="M74.2,104.8h1.3v0.7h0.1c0.6-0.4,1.6-0.8,2.5-0.8c1.5,0,2.2,0.6,2.2,2.1v6.2H79v-6c0-0.8-0.3-1.2-1.4-1.2
			c-0.7,0-1.5,0.3-2,0.5v6.7h-1.4V104.8z"/>
		<path d="M81.2,114.1c0-0.9,0.7-1.5,1.5-1.8v-0.1c-0.5-0.2-0.8-0.6-0.8-1.1s0.3-1.1,0.9-1.5c-0.6-0.4-1-1.1-1-2v-0.2
			c0-1.7,1.2-2.7,2.9-2.7c0.4,0,0.8,0,1.1,0.1h2.5v1h-1.2c0.3,0.4,0.5,0.8,0.5,1.4v0.2c0,1.7-1.3,2.6-2.9,2.6c-0.4,0-0.9,0-1.2-0.2
			c-0.2,0.2-0.3,0.4-0.3,0.7c0,0.4,0.2,0.7,0.8,0.7h1.9c1.6,0,2.5,0.6,2.5,2.2c0,1.5-1.1,2.7-3.6,2.7
			C82.4,116.2,81.2,115.4,81.2,114.1z M86.9,113.7c0-0.7-0.3-1.1-1.3-1.1h-2c-0.5,0.2-1,0.7-1,1.3c0,0.8,0.6,1.2,2,1.2
			C86.3,115.1,86.9,114.6,86.9,113.7z M86.2,107.6v-0.3c0-1.1-0.6-1.6-1.6-1.6c-1,0-1.6,0.5-1.6,1.5v0.3c0,1,0.6,1.5,1.6,1.5
			C85.6,109.1,86.2,108.6,86.2,107.6z"/>
		<path d="M89.8,106h-1.1v-1.1h1.1v-1.2c0-1.7,0.9-2.5,2.4-2.5c0.6,0,1,0.1,1.3,0.3v1c-0.2,0-0.5-0.1-1-0.1c-0.9,0-1.3,0.5-1.3,1.5
			v1.1h1.7v1.1h-1.7v7.1h-1.3V106z"/>
		<path d="M93.4,109.2v-0.4c0-2.5,1.3-4.1,3.4-4.1c2.2,0,3.4,1.5,3.4,4v0.4c0,2.5-1.3,4.1-3.4,4.1C94.6,113.2,93.4,111.7,93.4,109.2
			z M98.9,109.3v-0.7c0-2-0.8-2.8-2.1-2.8c-1.3,0-2,1.1-2,2.8v0.7c0,2,0.8,2.8,2.1,2.8C98.2,112.1,98.9,111,98.9,109.3z"/>
		<path d="M101.6,104.8h1.3v0.9h0.1c0.4-0.5,1.2-1,2-1c0.2,0,0.4,0,0.5,0.1v1.2c-0.2,0-0.4,0-0.6,0c-0.7,0-1.4,0.2-1.9,0.6v6.5h-1.4
			V104.8z"/>
		<path d="M106,112.7v-1.1c0.6,0.2,1.2,0.5,2.1,0.5c1.1,0,1.6-0.4,1.6-1.2c0-0.7-0.3-1-1.2-1.3l-0.6-0.2c-1.1-0.4-1.8-0.9-1.8-2.3
			c0-1.4,0.9-2.4,2.7-2.4c1,0,1.5,0.2,1.9,0.4v1.1c-0.4-0.2-1.1-0.4-1.9-0.4c-0.9,0-1.5,0.3-1.5,1.1c0,0.7,0.3,0.9,1.1,1.2l0.6,0.2
			c1.4,0.5,2,1,2,2.4c0,1.6-1.1,2.5-2.7,2.5C107.4,113.2,106.6,113,106,112.7z"/>
		<path d="M113.7,113.1h-1.4v-11.8h1.4V113.1z M116.6,104.8h1.5l-2.6,3.9l2.8,4.4h-1.6l-2.8-4.2L116.6,104.8z"/>
		<path d="M118.7,109.2v-0.4c0-2.5,1.3-4.1,3.4-4.1c2.2,0,3.4,1.5,3.4,4v0.4c0,2.5-1.3,4.1-3.4,4.1
			C119.9,113.2,118.7,111.7,118.7,109.2z M124.1,109.3v-0.7c0-2-0.8-2.8-2.1-2.8c-1.3,0-2,1.1-2,2.8v0.7c0,2,0.8,2.8,2.1,2.8
			C123.4,112.1,124.1,111,124.1,109.3z"/>
		<path d="M126.9,104.8h1.3v0.9h0.1c0.4-0.5,1.2-1,2-1c0.2,0,0.4,0,0.5,0.1v1.2c-0.2,0-0.4,0-0.6,0c-0.7,0-1.4,0.2-1.9,0.6v6.5h-1.4
			V104.8z"/>
		<path d="M132.3,111.2V106h-1.1v-1.1h1.1v-1.9h1.3v1.9h1.9v1.1h-1.9v5.1c0,0.8,0.3,1,1.1,1c0.3,0,0.7-0.1,0.9-0.1v0.9
			c-0.3,0.2-0.7,0.3-1.3,0.3C133.1,113.1,132.3,112.6,132.3,111.2z"/>
		<path d="M17.2,124.3l-1.8,0.2v-0.8l2.6-1.1h0.5v9.6h-1.4V124.3z"/>
		<path d="M20.3,127.8v-0.5c0-3.3,1.6-4.7,3.7-4.7c2.1,0,3.7,1.3,3.7,4.6v0.5c0,3.4-1.6,4.7-3.7,4.7
			C21.9,132.4,20.3,131.1,20.3,127.8z M26.4,127.9v-0.8c0-2.3-0.8-3.5-2.4-3.5s-2.3,1.1-2.3,3.4v0.8c0,2.3,0.8,3.5,2.3,3.5
			C25.6,131.3,26.4,130.3,26.4,127.9z"/>
		<path d="M31.3,128.3V128c0-2.8,1.4-4.1,3.2-4.1c2,0,3,1.2,3,3.9v0.8h-4.8c0.1,1.9,0.9,2.7,2.4,2.7c0.9,0,1.6-0.2,2.3-0.6v1
			c-0.4,0.4-1.3,0.8-2.4,0.8C32.5,132.4,31.3,130.9,31.3,128.3z M32.7,127.5h3.4c0-1.8-0.5-2.5-1.6-2.5
			C33.6,125,32.8,125.6,32.7,127.5z"/>
		<path d="M38.8,130.1V124h1.3v5.9c0,0.8,0.3,1.2,1.4,1.2c0.8,0,1.4-0.3,1.9-0.5V124h1.3v8.2h-1.2l-0.1-0.7h-0.1
			c-0.6,0.4-1.4,0.8-2.4,0.8C39.5,132.4,38.8,131.5,38.8,130.1z"/>
		<path d="M46.5,124h1.3v0.9h0.1c0.4-0.5,1.2-1,2-1c0.2,0,0.4,0,0.5,0.1v1.2c-0.2,0-0.4,0-0.6,0c-0.7,0-1.4,0.2-1.9,0.6v6.5h-1.4
			V124z"/>
		<path d="M51,128.4V128c0-2.5,1.3-4.1,3.4-4.1c2.2,0,3.4,1.5,3.4,4v0.4c0,2.5-1.3,4.1-3.4,4.1C52.2,132.4,51,130.9,51,128.4z
			 M56.5,128.5v-0.7c0-2-0.8-2.8-2.1-2.8c-1.3,0-2,1.1-2,2.8v0.7c0,2,0.8,2.8,2.1,2.8C55.8,131.3,56.5,130.2,56.5,128.5z"/>
		<path d="M61.7,127.5v-0.3c0-2.9,1.3-5.3,2.8-6.7h1.2c-1.3,1.6-2.5,4-2.5,6.6v0.5c0,2.5,1.2,5.1,2.5,6.7h-1.2
			C63.1,132.7,61.7,130.4,61.7,127.5z"/>
		<path d="M71,124L71,124l-4.7-0.1v-1.1h6v1.1l-3.9,10h-1.4L71,124z"/>
		<path d="M75.7,128.3V128c0-2.8,1.4-4.1,3.2-4.1c2,0,3,1.2,3,3.9v0.8h-4.8c0.1,1.9,0.9,2.7,2.4,2.7c0.9,0,1.6-0.2,2.3-0.6v1
			c-0.4,0.4-1.3,0.8-2.4,0.8C76.9,132.4,75.7,130.9,75.7,128.3z M77.1,127.5h3.4c0-1.8-0.5-2.5-1.6-2.5
			C78,125,77.2,125.6,77.1,127.5z"/>
		<path d="M83.2,130.1V124h1.3v5.9c0,0.8,0.3,1.2,1.4,1.2c0.8,0,1.4-0.3,1.9-0.5V124h1.3v8.2H88l-0.1-0.7h-0.1
			c-0.6,0.4-1.4,0.8-2.4,0.8C83.9,132.4,83.2,131.5,83.2,130.1z"/>
		<path d="M90.9,124h1.3v0.9h0.1c0.4-0.5,1.2-1,2-1c0.2,0,0.4,0,0.5,0.1v1.2c-0.2,0-0.4,0-0.6,0c-0.7,0-1.4,0.2-1.9,0.6v6.5h-1.4
			V124z"/>
		<path d="M95.4,128.4V128c0-2.5,1.3-4.1,3.4-4.1c2.2,0,3.4,1.5,3.4,4v0.4c0,2.5-1.3,4.1-3.4,4.1C96.6,132.4,95.4,130.9,95.4,128.4z
			 M100.9,128.5v-0.7c0-2-0.8-2.8-2.1-2.8c-1.3,0-2,1.1-2,2.8v0.7c0,2,0.8,2.8,2.1,2.8C100.1,131.3,100.9,130.2,100.9,128.5z"/>
		<path d="M105.3,127.6v-0.5c0-2.5-1.2-5.1-2.5-6.7h1.2c1.4,1.4,2.7,3.8,2.7,6.7v0.3c0,2.9-1.3,5.2-2.7,6.7h-1.2
			C104.1,132.6,105.3,130.2,105.3,127.6z"/>
		<path d="M16.2,159.6h3.1c2.5,0,3.4,1,3.4,2.8c0,1.2-0.5,2.1-1.7,2.4v0.1c1.3,0.2,2.2,1,2.2,2.7c0,1.9-1.2,3.1-3.6,3.1h-3.2V159.6z
			 M19,164.3c1.3,0,2.2-0.4,2.2-1.8c0-1.4-0.7-1.8-2.1-1.8h-1.5v3.6H19z M19.3,169.5c1.6,0,2.2-0.7,2.2-2.1c0-1.4-0.8-1.9-2.3-1.9
			h-1.7v4H19.3z"/>
		<path d="M23.9,168.5c0-1.4,0.9-2.2,2.4-2.4l1.9-0.3V165c0-1.2-0.5-1.5-1.8-1.5c-0.8,0-1.4,0.1-1.8,0.3v-1c0.6-0.3,1.4-0.4,2.4-0.4
			c1.7,0,2.7,0.8,2.7,2.4v6h-1.1l-0.1-0.6h-0.1c-0.4,0.4-1,0.8-1.9,0.8C24.9,170.8,23.9,170,23.9,168.5z M28.2,169.3v-2.4l-1.5,0.2
			c-0.9,0.1-1.4,0.5-1.4,1.4s0.5,1.3,1.4,1.3C27.3,169.7,27.9,169.5,28.2,169.3z"/>
		<path d="M30.8,170.3v-1.1c0.6,0.2,1.2,0.5,2.1,0.5c1.1,0,1.6-0.4,1.6-1.2c0-0.7-0.3-1-1.2-1.3l-0.6-0.2c-1.1-0.4-1.8-0.9-1.8-2.3
			c0-1.4,0.9-2.4,2.7-2.4c1,0,1.5,0.2,1.9,0.4v1.1c-0.4-0.2-1.1-0.4-1.9-0.4c-0.9,0-1.5,0.3-1.5,1.1c0,0.7,0.3,0.9,1.1,1.2l0.6,0.2
			c1.4,0.5,2,1,2,2.4c0,1.6-1.1,2.5-2.7,2.5C32.2,170.8,31.4,170.6,30.8,170.3z"/>
		<path d="M37.3,168.8v-5.2h-1.1v-1.1h1.1v-1.9h1.3v1.9h1.9v1.1h-1.9v5.1c0,0.8,0.3,1,1.1,1c0.3,0,0.7-0.1,0.9-0.1v0.9
			c-0.3,0.2-0.7,0.3-1.3,0.3C38.2,170.7,37.3,170.2,37.3,168.8z"/>
		<path d="M41.9,168.5v-6.1h1.3v5.9c0,0.8,0.3,1.2,1.4,1.2c0.8,0,1.4-0.3,1.9-0.5v-6.6h1.3v8.2h-1.2l-0.1-0.7h-0.1
			c-0.6,0.4-1.4,0.8-2.4,0.8C42.6,170.8,41.9,169.9,41.9,168.5z"/>
		<path d="M49.6,162.4h1.3v0.7H51c0.6-0.4,1.6-0.8,2.5-0.8c1.5,0,2.2,0.6,2.2,2.1v6.2h-1.3v-6c0-0.8-0.3-1.2-1.4-1.2
			c-0.7,0-1.5,0.3-2,0.5v6.7h-1.4V162.4z"/>
		<path d="M60.5,163.6h-1.1v-1.1h1.1v-1.2c0-1.7,1-2.5,2.3-2.5c0.6,0,0.9,0.1,1.1,0.2v1c-0.2,0-0.4-0.1-0.8-0.1
			c-0.8,0-1.2,0.4-1.2,1.5v1.1H66v8.2h-1.3v-7.1h-2.8v7.1h-1.3V163.6z M64.6,159.4H66v1.4h-1.4V159.4z"/>
		<path d="M67.8,162.4h1.3v0.7h0.1c0.6-0.4,1.6-0.8,2.5-0.8c1.5,0,2.2,0.6,2.2,2.1v6.2h-1.3v-6c0-0.8-0.3-1.2-1.4-1.2
			c-0.7,0-1.5,0.3-2,0.5v6.7h-1.4V162.4z"/>
		<path d="M75.6,162.4h1.3v0.7H77c0.6-0.4,1.6-0.8,2.5-0.8c1.5,0,2.2,0.6,2.2,2.1v6.2h-1.3v-6c0-0.8-0.3-1.2-1.4-1.2
			c-0.7,0-1.5,0.3-2,0.5v6.7h-1.4V162.4z"/>
		<path d="M82.9,170.3v-1.1c0.6,0.2,1.2,0.5,2.1,0.5c1.1,0,1.6-0.4,1.6-1.2c0-0.7-0.3-1-1.2-1.3l-0.6-0.2c-1.1-0.4-1.8-0.9-1.8-2.3
			c0-1.4,0.9-2.4,2.7-2.4c1,0,1.5,0.2,1.9,0.4v1.1c-0.4-0.2-1.1-0.4-1.9-0.4c-0.9,0-1.5,0.3-1.5,1.1c0,0.7,0.3,0.9,1.1,1.2l0.6,0.2
			c1.4,0.5,2,1,2,2.4c0,1.6-1.1,2.5-2.7,2.5C84.3,170.8,83.5,170.6,82.9,170.3z"/>
		<path d="M92,159.4h1.4v1.4H92V159.4z M92,162.4h1.3v8.2H92V162.4z"/>
		<path d="M97.8,162.4h1.3v0.6h0.1c0.4-0.4,1.2-0.8,2.2-0.8c1.7,0,3,1,3,3.9v0.4c0,2.8-1.2,4.2-3.4,4.2c-0.8,0-1.5-0.2-1.8-0.5v3.4
			h-1.4V162.4z M103,166.8v-0.5c0-2.1-0.7-2.8-2-2.8c-0.8,0-1.5,0.3-1.8,0.5v5.2c0.3,0.2,1,0.5,1.7,0.5
			C102.3,169.7,103,168.8,103,166.8z"/>
		<path d="M105.2,168.5c0-1.4,0.9-2.2,2.4-2.4l1.9-0.3V165c0-1.2-0.5-1.5-1.8-1.5c-0.8,0-1.4,0.1-1.8,0.3v-1
			c0.6-0.3,1.4-0.4,2.4-0.4c1.7,0,2.7,0.8,2.7,2.4v6h-1.1l-0.1-0.6h-0.1c-0.4,0.4-1,0.8-1.9,0.8C106.2,170.8,105.2,170,105.2,168.5z
			 M109.6,169.3v-2.4L108,167c-0.9,0.1-1.4,0.5-1.4,1.4s0.5,1.3,1.4,1.3C108.7,169.7,109.3,169.5,109.6,169.3z"/>
		<path d="M112.6,162.4h1.3v0.9h0.1c0.4-0.5,1.2-1,2-1c0.2,0,0.4,0,0.5,0.1v1.2c-0.2,0-0.4,0-0.6,0c-0.7,0-1.4,0.2-1.9,0.6v6.5h-1.4
			V162.4z"/>
		<path d="M117.6,159.4h1.4v1.4h-1.4V159.4z M117.6,162.4h1.3v8.2h-1.3V162.4z"/>
		<path d="M120.2,170.3v-1.1c0.6,0.2,1.2,0.5,2.1,0.5c1.1,0,1.6-0.4,1.6-1.2c0-0.7-0.3-1-1.2-1.3l-0.6-0.2c-1.1-0.4-1.8-0.9-1.8-2.3
			c0-1.4,0.9-2.4,2.7-2.4c1,0,1.5,0.2,1.9,0.4v1.1c-0.4-0.2-1.1-0.4-1.9-0.4c-0.9,0-1.5,0.3-1.5,1.1c0,0.7,0.3,0.9,1.1,1.2l0.6,0.2
			c1.4,0.5,2,1,2,2.4c0,1.6-1.1,2.5-2.7,2.5C121.6,170.8,120.8,170.6,120.2,170.3z"/>
		<path d="M126.1,166.7v-0.4c0-2.8,1.4-4.1,3.2-4.1c2,0,3,1.2,3,3.9v0.8h-4.8c0.1,1.9,0.9,2.7,2.4,2.7c0.9,0,1.6-0.2,2.3-0.6v1
			c-0.4,0.4-1.3,0.8-2.4,0.8C127.3,170.8,126.1,169.3,126.1,166.7z M127.5,165.9h3.4c0-1.8-0.5-2.5-1.6-2.5
			C128.4,163.4,127.5,164,127.5,165.9z"/>
		<path d="M133.6,162.4h1.3v0.9h0.1c0.4-0.5,1.2-1,2-1c0.2,0,0.4,0,0.5,0.1v1.2c-0.2,0-0.4,0-0.6,0c-0.7,0-1.4,0.2-1.9,0.6v6.5h-1.4
			V162.4z"/>
		<path d="M138.5,158.9h1.4v4.2h0.1c0.6-0.4,1.5-0.8,2.5-0.8c1.5,0,2.2,0.6,2.2,2.1v6.2h-1.3v-6c0-0.8-0.3-1.2-1.4-1.2
			c-0.7,0-1.5,0.3-2,0.5v6.7h-1.4V158.9z"/>
		<path d="M144.4,173.5v-0.9c0.2,0,0.5,0.1,0.8,0.1c0.7,0,1.1-0.4,1.1-1.2v-9h1.3v9.1c0,1.3-0.6,2.3-2.1,2.3
			C145,173.8,144.7,173.7,144.4,173.5z M146.3,159.4h1.4v1.4h-1.4V159.4z"/>
		<path d="M149.5,168.5v-6.1h1.3v5.9c0,0.8,0.3,1.2,1.4,1.2c0.8,0,1.4-0.3,1.9-0.5v-6.6h1.3v8.2h-1.2l-0.1-0.7h-0.1
			c-0.6,0.4-1.4,0.8-2.4,0.8C150.2,170.8,149.5,169.9,149.5,168.5z"/>
		<path d="M157.2,158.9h1.3v11.8h-1.3V158.9z"/>
		<path d="M159.9,166.7v-0.4c0-2.8,1.4-4.1,3.2-4.1c2,0,3,1.2,3,3.9v0.8h-4.8c0.1,1.9,0.9,2.7,2.4,2.7c0.9,0,1.6-0.2,2.3-0.6v1
			c-0.4,0.4-1.3,0.8-2.4,0.8C161.1,170.8,159.9,169.3,159.9,166.7z M161.3,165.9h3.4c0-1.8-0.5-2.5-1.6-2.5
			C162.2,163.4,161.4,164,161.3,165.9z"/>
		<path d="M167.9,168.8v-5.2h-1.1v-1.1h1.1v-1.9h1.3v1.9h1.9v1.1h-1.9v5.1c0,0.8,0.3,1,1.1,1c0.3,0,0.7-0.1,0.9-0.1v0.9
			c-0.3,0.2-0.7,0.3-1.3,0.3C168.7,170.7,167.9,170.2,167.9,168.8z"/>
		<path d="M15.3,200.8h1.4l1.1,4.8c0.2,0.9,0.4,1.6,0.4,1.6h0c0,0,0.2-0.7,0.4-1.6l1.2-4.8h1.2l1.3,4.8c0.3,1,0.4,1.6,0.4,1.6h0.1
			c0,0,0.2-0.7,0.4-1.6l1.1-4.8h1.3l-2.1,8.2h-1.4l-1.1-4.2c-0.3-1-0.5-1.8-0.5-1.8h-0.1c0,0-0.2,0.8-0.5,1.8l-1.2,4.2h-1.4
			L15.3,200.8z"/>
		<path d="M26,200.8h1.4l1.1,4.8c0.2,0.9,0.4,1.6,0.4,1.6h0c0,0,0.2-0.7,0.4-1.6l1.2-4.8h1.2l1.3,4.8c0.3,1,0.4,1.6,0.4,1.6h0.1
			c0,0,0.2-0.7,0.4-1.6l1.1-4.8h1.3l-2.1,8.2h-1.4l-1.1-4.2c-0.3-1-0.5-1.8-0.5-1.8h-0.1c0,0-0.2,0.8-0.5,1.8l-1.2,4.2h-1.4
			L26,200.8z"/>
		<path d="M36.7,200.8h1.4l1.1,4.8c0.2,0.9,0.4,1.6,0.4,1.6h0c0,0,0.2-0.7,0.4-1.6l1.2-4.8h1.2l1.3,4.8c0.3,1,0.4,1.6,0.4,1.6h0.1
			c0,0,0.2-0.7,0.4-1.6l1.1-4.8H47l-2.1,8.2h-1.4l-1.1-4.2c-0.3-1-0.5-1.8-0.5-1.8h-0.1c0,0-0.2,0.8-0.5,1.8l-1.2,4.2h-1.4
			L36.7,200.8z"/>
		<path d="M47.2,207.5h1.5v1.6h-1.5V207.5z"/>
		<path d="M50.1,208.7v-1.1c0.6,0.2,1.2,0.5,2.1,0.5c1.1,0,1.6-0.4,1.6-1.2c0-0.7-0.3-1-1.2-1.3l-0.6-0.2c-1.1-0.4-1.8-0.9-1.8-2.3
			c0-1.4,0.9-2.4,2.7-2.4c1,0,1.5,0.2,1.9,0.4v1.1c-0.4-0.2-1.1-0.4-1.9-0.4c-0.9,0-1.5,0.3-1.5,1.1c0,0.7,0.3,0.9,1.1,1.2l0.6,0.2
			c1.4,0.5,2,1,2,2.4c0,1.6-1.1,2.5-2.7,2.5C51.5,209.2,50.7,209,50.1,208.7z"/>
		<path d="M57.8,209.1h-1.4v-11.8h1.4V209.1z M60.7,200.8h1.5l-2.6,3.9l2.8,4.4h-1.6l-2.8-4.2L60.7,200.8z"/>
		<path d="M63,212V211c0.2,0,0.5,0.1,0.8,0.1c0.7,0,1.2-0.3,1.5-1.3l0.3-0.8l-2.9-8.1h1.5l1.7,5.2c0.2,0.7,0.3,1,0.3,1h0
			c0,0,0.1-0.4,0.3-1l1.6-5.2h1.4l-3,9.2c-0.5,1.5-1.1,2.2-2.5,2.2C63.6,212.2,63.2,212.1,63,212z"/>
		<path d="M69.9,200.8h1.4l1.1,4.8c0.2,0.9,0.4,1.6,0.4,1.6h0c0,0,0.2-0.7,0.4-1.6l1.2-4.8h1.2l1.3,4.8c0.3,1,0.4,1.6,0.4,1.6h0.1
			c0,0,0.2-0.7,0.4-1.6l1.1-4.8h1.3l-2.1,8.2h-1.4l-1.1-4.2c-0.3-1-0.5-1.8-0.5-1.8H75c0,0-0.2,0.8-0.5,1.8l-1.2,4.2H72L69.9,200.8z
			"/>
		<path d="M81.3,197.3h1.4v4.2h0.1c0.6-0.4,1.5-0.8,2.5-0.8c1.5,0,2.2,0.6,2.2,2.1v6.2H86v-6c0-0.8-0.3-1.2-1.4-1.2
			c-0.7,0-1.5,0.3-2,0.5v6.7h-1.4V197.3z"/>
		<path d="M88.6,205.1v-0.4c0-2.8,1.4-4.1,3.2-4.1c2,0,3,1.2,3,3.9v0.8H90c0.1,1.9,0.9,2.7,2.4,2.7c0.9,0,1.6-0.2,2.3-0.6v1
			c-0.4,0.4-1.3,0.8-2.4,0.8C89.9,209.2,88.6,207.7,88.6,205.1z M90,204.3h3.4c0-1.8-0.5-2.5-1.6-2.5
			C90.9,201.8,90.1,202.4,90,204.3z"/>
		<path d="M95.7,205.1v-0.4c0-2.8,1.4-4.1,3.2-4.1c2,0,3,1.2,3,3.9v0.8h-4.8c0.1,1.9,0.9,2.7,2.4,2.7c0.9,0,1.6-0.2,2.3-0.6v1
			c-0.4,0.4-1.3,0.8-2.4,0.8C96.9,209.2,95.7,207.7,95.7,205.1z M97.1,204.3h3.4c0-1.8-0.5-2.5-1.6-2.5
			C98,201.8,97.1,202.4,97.1,204.3z"/>
		<path d="M103.2,197.3h1.3v11.8h-1.3V197.3z"/>
		<path d="M106.5,207.5h1.5v1.6h-1.5V207.5z"/>
		<path d="M110,202h-1.1v-1.1h1.1v-1.2c0-1.7,1-2.5,2.3-2.5c0.6,0,0.9,0.1,1.1,0.2v1c-0.2,0-0.4-0.1-0.8-0.1c-0.8,0-1.2,0.4-1.2,1.5
			v1.1h4.1v8.2h-1.3V202h-2.8v7.1H110V202z M114.1,197.8h1.4v1.4h-1.4V197.8z"/>
	</g>
	<g>
		<g>
			<path class="st1" d="M16.3,33.3v-2.2c1,0.4,2.2,0.8,3.5,0.8c1.6,0,2.3-0.6,2.3-1.8c0-1.1-0.5-1.4-1.8-1.8l-1-0.4
				c-1.9-0.6-3-1.7-3-4c0-2.5,1.5-4,4.6-4c1.8,0,2.7,0.3,3.4,0.7v2.2c-0.8-0.3-1.8-0.6-3.2-0.6c-1.3,0-2,0.5-2,1.6
				c0,0.9,0.4,1.3,1.6,1.7l1.1,0.3c2,0.6,3.3,1.5,3.3,4.1c0,2.7-1.6,4.4-4.9,4.4C18.6,34.1,17.2,33.8,16.3,33.3z"/>
			<path class="st1" d="M29,33.9h-2.7V19.1H29v9.3l3.1-5h2.8l-3.1,4.9l3.3,5.6h-2.9L29,28.4V33.9z"/>
			<path class="st1" d="M35.8,37.5v-1.8c0.3,0,0.7,0.1,1,0.1c0.9,0,1.4-0.3,1.7-1.3l0.3-0.8l-3.5-10.4H38l1.5,5.1
				c0.2,0.8,0.5,1.9,0.5,1.9h0.1c0,0,0.3-1.1,0.5-1.9l1.4-5.1h2.6L41,34.9c-0.6,2-1.6,2.9-3.6,2.9C36.8,37.8,36.1,37.7,35.8,37.5z"
				/>
			<path class="st1" d="M48.2,33.4v-1.9c0.8,0.3,1.5,0.6,2.7,0.6c1.2,0,1.7-0.4,1.7-1.1c0-0.7-0.3-0.9-1.3-1.2l-0.7-0.2
				c-1.5-0.5-2.4-1.4-2.4-3.1c0-2,1.3-3.2,3.8-3.2c1.2,0,2.1,0.2,2.7,0.5v1.9c-0.6-0.2-1.5-0.5-2.4-0.5c-1,0-1.5,0.3-1.5,1
				c0,0.6,0.3,0.8,1.2,1.1l0.7,0.2c1.8,0.6,2.6,1.4,2.6,3.2c0,2.2-1.4,3.4-3.9,3.4C50.1,34.1,48.9,33.8,48.2,33.4z"/>
			<path class="st1" d="M55.9,31.1c0-2,1.3-2.9,3.4-3.2l2-0.3v-0.7c0-1.2-0.5-1.6-2.1-1.6c-1,0-1.9,0.2-2.5,0.3v-1.8
				c0.9-0.4,2.1-0.6,3.5-0.6c2.4,0,3.7,0.9,3.7,3.1v7.5h-2.2l-0.2-0.8h-0.1c-0.4,0.6-1.3,1-2.5,1C57.2,34.1,55.9,33.1,55.9,31.1z
				 M61.3,31.8v-2.5l-1.4,0.1c-0.9,0.1-1.4,0.5-1.4,1.4c0,1,0.5,1.4,1.3,1.4C60.5,32.2,61,32,61.3,31.8z"/>
			<path class="st1" d="M65.6,31.1v-7.7h2.7v7.3c0,0.9,0.3,1.2,1.4,1.2c0.7,0,1.3-0.3,1.8-0.5v-8h2.7v10.5h-2.3L71.6,33h-0.1
				c-0.8,0.6-1.7,1.1-3,1.1C66.6,34.1,65.6,33.1,65.6,31.1z"/>
			<path class="st1" d="M75.9,23.4h2.6v0.9h0.1c0.8-0.6,1.9-1.1,3.1-1.1c1.8,0,2.8,0.8,2.8,2.7v7.9h-2.7v-7.3c0-0.9-0.3-1.2-1.4-1.2
				c-0.7,0-1.4,0.2-1.9,0.5v8h-2.7V23.4z"/>
			<path class="st1" d="M85.7,31.1c0-2,1.3-2.9,3.4-3.2l2-0.3v-0.7c0-1.2-0.5-1.6-2.1-1.6c-1,0-1.9,0.2-2.5,0.3v-1.8
				c0.9-0.4,2.1-0.6,3.5-0.6c2.4,0,3.7,0.9,3.7,3.1v7.5h-2.2l-0.2-0.8h-0.1c-0.4,0.6-1.3,1-2.5,1C87,34.1,85.7,33.1,85.7,31.1z
				 M91.1,31.8v-2.5l-1.4,0.1c-0.9,0.1-1.4,0.5-1.4,1.4c0,1,0.5,1.4,1.3,1.4C90.3,32.2,90.8,32,91.1,31.8z"/>
		</g>
	</g>
	<g>
		<path class="st2" d="M122.9,287.9V287c0.9,0.5,2,0.8,3.3,0.8c2.1,0,3-1,3-2.6c0-1.5-0.8-2.1-2.3-2.6l-0.9-0.3
			c-1.9-0.6-2.8-1.5-2.8-3.4c0-1.8,1.2-3.1,3.6-3.1c1.4,0,2.2,0.3,2.9,0.6v0.9c-0.6-0.3-1.6-0.7-2.9-0.7c-1.7,0-2.6,0.9-2.6,2.2
			c0,1.4,0.5,2,2.2,2.5l0.9,0.3c1.8,0.6,3,1.4,3,3.5c0,2.1-1.2,3.5-3.9,3.5C124.8,288.7,123.6,288.3,122.9,287.9z"/>
		<path class="st2" d="M134.4,276.9h-3.8V276h8.6v0.8h-3.8v11.6h-1V276.9z"/>
		<path class="st2" d="M142.8,276.6h1l4.4,11.9h-1l-1.4-3.7h-5l-1.4,3.7h-1L142.8,276.6z M142.7,279.5l-1.7,4.5h4.4l-1.6-4.5
			c-0.1-0.4-0.5-1.6-0.5-1.6h0C143.3,277.9,142.9,279.1,142.7,279.5z M141.6,274.5h1v1.1h-1V274.5z M144.1,274.5h1v1.1h-1V274.5z"/>
		<path class="st2" d="M149.4,276h1.2l4.8,8.3c0.4,0.7,1.5,2.6,1.5,2.6h0V276h0.9v12.5h-1.1l-5.1-8.7c-0.4-0.7-1.4-2.5-1.4-2.5h0
			v11.1h-0.9V276z"/>
		<path class="st2" d="M159.6,282.5v-0.4c0-4.4,2.2-6.2,5.4-6.2c1.5,0,2.4,0.3,3,0.6v0.9c-0.7-0.3-1.6-0.7-3.1-0.7
			c-3,0-4.3,2.1-4.3,5.3v0.5c0,3.3,1.1,5.3,4.4,5.3c1,0,1.8-0.2,2.4-0.4v-4h-2.6v-0.8h3.6v5.4c-0.9,0.4-2.1,0.6-3.5,0.6
			C161.5,288.7,159.6,286.7,159.6,282.5z"/>
	</g>
</g>
</svg>
